<svg xmlns="http://www.w3.org/2000/svg" viewBox="0 0 20 20" shape-rendering="crispEdges">
  <rect width="20" height="20" rx="3" fill="#fef3c7"/>
  <g fill="#d53838">
    <rect x="8" y="3" width="2" height="1"/>
    <rect x="11" y="3" width="2" height="1"/>
    <rect x="7" y="4" width="7" height="1"/>
  </g>
  <g fill="#ffffff">
    <rect x="6" y="5" width="9" height="1"/>
    <rect x="5" y="6" width="11" height="1"/>
    <rect x="5" y="7" width="2" height="1"/>
    <rect x="8" y="7" width="5" height="1"/>
    <rect x="14" y="7" width="2" height="1"/>
    <rect x="5" y="8" width="11" height="1"/>
    <rect x="5" y="9" width="5" height="1"/>
    <rect x="12" y="9" width="4" height="1"/>
    <rect x="5" y="10" width="4" height="1"/>
    <rect x="13" y="10" width="3" height="1"/>
    <rect x="5" y="11" width="5" height="1"/>
    <rect x="12" y="11" width="4" height="1"/>
    <rect x="4" y="12" width="13" height="1"/>
    <rect x="3" y="13" width="14" height="1"/>
    <rect x="3" y="14" width="14" height="1"/>
    <rect x="3" y="15" width="14" height="1"/>
    <rect x="4" y="16" width="12" height="1"/>
  </g>
  <g fill="#222222">
    <rect x="7" y="7" width="1" height="1"/>
    <rect x="13" y="7" width="1" height="1"/>
  </g>
  <g fill="#f5a623">
    <rect x="10" y="9" width="2" height="1"/>
    <rect x="9" y="10" width="4" height="1"/>
    <rect x="10" y="11" width="2" height="1"/>
    <rect x="7" y="17" width="2" height="1"/>
    <rect x="11" y="17" width="2" height="1"/>
  </g>
</svg>
